<mxfile modified="2022-10-27T00:08:48.891Z" host="Electron" agent="5.0 (Windows NT 10.0; Win64; x64) AppleWebKit/537.36 (KHTML, like Gecko) draw.io/20.3.0 Chrome/104.0.5112.114 Electron/20.1.3 Safari/537.36" etag="vez5SK3P_0_686r8y6_N" compressed="false" version="20.3.0" type="device">
  <diagram name="Functionality/System Logical Module/Scheduled Tasks" id="SOeO_8X5a3N5y0ZqyGSG">
    <mxGraphModel dx="782" dy="549" grid="1" gridSize="10" guides="1" tooltips="1" connect="1" arrows="1" fold="1" page="1" pageScale="1" pageWidth="827" pageHeight="1169" math="0" shadow="0">
      <root>
        <mxCell id="OM8NRhFuQUq9bNH01V5G-0" />
        <mxCell id="OM8NRhFuQUq9bNH01V5G-1" value="Diagram/Use Cases" parent="OM8NRhFuQUq9bNH01V5G-0" />
        <mxCell id="PXaz9dUa9yEy_tTSe90J-0" value="&lt;font style=&quot;font-size: 12px ; font-weight: normal&quot;&gt;&lt;i&gt;&lt;span style=&quot;font-size: 12px&quot;&gt;Diagram: Base System Logical Module -&amp;nbsp;&lt;/span&gt;&lt;span style=&quot;font-size: 12px&quot;&gt;Functionality -&amp;nbsp;&lt;/span&gt;Scheduling&lt;/i&gt;&lt;/font&gt;" style="text;strokeColor=none;fillColor=none;html=1;fontSize=12;fontStyle=1;verticalAlign=middle;align=left;shadow=0;glass=0;comic=0;opacity=30;fontColor=#808080;" parent="OM8NRhFuQUq9bNH01V5G-1" vertex="1">
          <mxGeometry x="120" y="600" width="520" height="20" as="geometry" />
        </mxCell>
        <mxCell id="mO-IhmBHAtIKuPdSIgoN-0" style="rounded=0;orthogonalLoop=1;jettySize=auto;html=1;entryX=0;entryY=1;entryDx=0;entryDy=0;exitX=1;exitY=0.5;exitDx=0;exitDy=0;" edge="1" parent="OM8NRhFuQUq9bNH01V5G-1" source="h8lUMve5sdKUbVkZzbHk-0" target="h8lUMve5sdKUbVkZzbHk-2">
          <mxGeometry relative="1" as="geometry" />
        </mxCell>
        <mxCell id="mO-IhmBHAtIKuPdSIgoN-1" style="edgeStyle=none;rounded=0;orthogonalLoop=1;jettySize=auto;html=1;entryX=0;entryY=1;entryDx=0;entryDy=0;exitX=1;exitY=0.5;exitDx=0;exitDy=0;" edge="1" parent="OM8NRhFuQUq9bNH01V5G-1" source="h8lUMve5sdKUbVkZzbHk-0" target="h8lUMve5sdKUbVkZzbHk-7">
          <mxGeometry relative="1" as="geometry" />
        </mxCell>
        <mxCell id="mO-IhmBHAtIKuPdSIgoN-2" style="edgeStyle=none;rounded=0;orthogonalLoop=1;jettySize=auto;html=1;entryX=0;entryY=1;entryDx=0;entryDy=0;exitX=1;exitY=0.5;exitDx=0;exitDy=0;" edge="1" parent="OM8NRhFuQUq9bNH01V5G-1" source="h8lUMve5sdKUbVkZzbHk-0" target="h8lUMve5sdKUbVkZzbHk-19">
          <mxGeometry relative="1" as="geometry" />
        </mxCell>
        <mxCell id="mO-IhmBHAtIKuPdSIgoN-3" style="edgeStyle=none;rounded=0;orthogonalLoop=1;jettySize=auto;html=1;entryX=0;entryY=1;entryDx=0;entryDy=0;exitX=1;exitY=0.5;exitDx=0;exitDy=0;" edge="1" parent="OM8NRhFuQUq9bNH01V5G-1" source="h8lUMve5sdKUbVkZzbHk-0" target="h8lUMve5sdKUbVkZzbHk-33">
          <mxGeometry relative="1" as="geometry" />
        </mxCell>
        <mxCell id="h8lUMve5sdKUbVkZzbHk-0" value="&amp;lt;&amp;lt;actor&amp;gt;&amp;gt;&lt;br&gt;&lt;b&gt;Authorised&lt;br&gt;User&lt;br&gt;&lt;/b&gt;" style="text;html=1;align=center;verticalAlign=middle;dashed=0;fillColor=#ffffff;strokeColor=#000000;" parent="OM8NRhFuQUq9bNH01V5G-1" vertex="1">
          <mxGeometry x="320" y="280" width="80" height="40" as="geometry" />
        </mxCell>
        <mxCell id="h8lUMve5sdKUbVkZzbHk-1" value="" style="fontStyle=1;align=left;verticalAlign=top;childLayout=stackLayout;horizontal=1;horizontalStack=0;resizeParent=1;resizeParentMax=0;resizeLast=0;marginBottom=0;" parent="OM8NRhFuQUq9bNH01V5G-1" vertex="1">
          <mxGeometry x="440" y="120" width="120" height="40" as="geometry" />
        </mxCell>
        <mxCell id="h8lUMve5sdKUbVkZzbHk-2" value="&lt;p style=&quot;line-height: 0.9;&quot;&gt;List Scheduled&lt;br&gt;Tasks&lt;/p&gt;" style="html=1;align=left;spacingLeft=4;verticalAlign=middle;strokeColor=none;fillColor=none;fontStyle=1;spacingTop=2;" parent="h8lUMve5sdKUbVkZzbHk-1" vertex="1">
          <mxGeometry width="120" height="20" as="geometry" />
        </mxCell>
        <mxCell id="h8lUMve5sdKUbVkZzbHk-3" value="" style="shape=ellipse;" parent="h8lUMve5sdKUbVkZzbHk-2" vertex="1">
          <mxGeometry x="1" width="20" height="10" relative="1" as="geometry">
            <mxPoint x="-25" y="5" as="offset" />
          </mxGeometry>
        </mxCell>
        <mxCell id="h8lUMve5sdKUbVkZzbHk-4" value="" style="line;strokeWidth=1;fillColor=none;align=left;verticalAlign=middle;spacingTop=-1;spacingLeft=3;spacingRight=3;rotatable=0;labelPosition=right;points=[];portConstraint=eastwest;" parent="h8lUMve5sdKUbVkZzbHk-1" vertex="1">
          <mxGeometry y="20" width="120" height="8" as="geometry" />
        </mxCell>
        <mxCell id="h8lUMve5sdKUbVkZzbHk-5" value="Filtered,Sorted,Paged Summaries" style="html=1;align=left;spacingLeft=4;verticalAlign=top;strokeColor=none;fillColor=none;fontSize=8;spacing=-2;" parent="h8lUMve5sdKUbVkZzbHk-1" vertex="1">
          <mxGeometry y="28" width="120" height="12" as="geometry" />
        </mxCell>
        <mxCell id="h8lUMve5sdKUbVkZzbHk-6" value="" style="fontStyle=1;align=left;verticalAlign=top;childLayout=stackLayout;horizontal=1;horizontalStack=0;resizeParent=1;resizeParentMax=0;resizeLast=0;marginBottom=0;" parent="OM8NRhFuQUq9bNH01V5G-1" vertex="1">
          <mxGeometry x="440" y="200" width="120" height="40" as="geometry" />
        </mxCell>
        <mxCell id="h8lUMve5sdKUbVkZzbHk-7" value="&lt;p style=&quot;line-height: 0.9;&quot;&gt;View Scheduled&lt;br&gt;Task&lt;/p&gt;" style="html=1;align=left;spacingLeft=4;verticalAlign=middle;strokeColor=none;fillColor=none;fontStyle=1;spacingTop=2;" parent="h8lUMve5sdKUbVkZzbHk-6" vertex="1">
          <mxGeometry width="120" height="20" as="geometry" />
        </mxCell>
        <mxCell id="h8lUMve5sdKUbVkZzbHk-8" value="" style="shape=ellipse;" parent="h8lUMve5sdKUbVkZzbHk-7" vertex="1">
          <mxGeometry x="1" width="20" height="10" relative="1" as="geometry">
            <mxPoint x="-25" y="5" as="offset" />
          </mxGeometry>
        </mxCell>
        <mxCell id="h8lUMve5sdKUbVkZzbHk-9" value="" style="line;strokeWidth=1;fillColor=none;align=left;verticalAlign=middle;spacingTop=-1;spacingLeft=3;spacingRight=3;rotatable=0;labelPosition=right;points=[];portConstraint=eastwest;" parent="h8lUMve5sdKUbVkZzbHk-6" vertex="1">
          <mxGeometry y="20" width="120" height="8" as="geometry" />
        </mxCell>
        <mxCell id="h8lUMve5sdKUbVkZzbHk-10" value="..." style="html=1;align=left;spacingLeft=4;verticalAlign=top;strokeColor=none;fillColor=none;fontSize=8;spacing=-2;" parent="h8lUMve5sdKUbVkZzbHk-6" vertex="1">
          <mxGeometry y="28" width="120" height="12" as="geometry" />
        </mxCell>
        <mxCell id="h8lUMve5sdKUbVkZzbHk-11" value="" style="fontStyle=1;align=left;verticalAlign=top;childLayout=stackLayout;horizontal=1;horizontalStack=0;resizeParent=1;resizeParentMax=0;resizeLast=0;marginBottom=0;" parent="OM8NRhFuQUq9bNH01V5G-1" vertex="1">
          <mxGeometry x="440" y="280" width="120" height="40" as="geometry" />
        </mxCell>
        <mxCell id="h8lUMve5sdKUbVkZzbHk-12" value="&lt;p style=&quot;line-height: 0.9;&quot;&gt;Update &lt;br&gt;Scheduled Task&lt;/p&gt;" style="html=1;align=left;spacingLeft=4;verticalAlign=middle;strokeColor=none;fillColor=none;fontStyle=1;spacingTop=2;" parent="h8lUMve5sdKUbVkZzbHk-11" vertex="1">
          <mxGeometry width="120" height="20" as="geometry" />
        </mxCell>
        <mxCell id="h8lUMve5sdKUbVkZzbHk-13" value="" style="shape=ellipse;" parent="h8lUMve5sdKUbVkZzbHk-12" vertex="1">
          <mxGeometry x="1" width="20" height="10" relative="1" as="geometry">
            <mxPoint x="-25" y="5" as="offset" />
          </mxGeometry>
        </mxCell>
        <mxCell id="h8lUMve5sdKUbVkZzbHk-14" value="" style="line;strokeWidth=1;fillColor=none;align=left;verticalAlign=middle;spacingTop=-1;spacingLeft=3;spacingRight=3;rotatable=0;labelPosition=right;points=[];portConstraint=eastwest;" parent="h8lUMve5sdKUbVkZzbHk-11" vertex="1">
          <mxGeometry y="20" width="120" height="8" as="geometry" />
        </mxCell>
        <mxCell id="h8lUMve5sdKUbVkZzbHk-15" value="..." style="html=1;align=left;spacingLeft=4;verticalAlign=top;strokeColor=none;fillColor=none;fontSize=8;spacing=-2;" parent="h8lUMve5sdKUbVkZzbHk-11" vertex="1">
          <mxGeometry y="28" width="120" height="12" as="geometry" />
        </mxCell>
        <mxCell id="h8lUMve5sdKUbVkZzbHk-18" value="" style="fontStyle=1;align=left;verticalAlign=top;childLayout=stackLayout;horizontal=1;horizontalStack=0;resizeParent=1;resizeParentMax=0;resizeLast=0;marginBottom=0;" parent="OM8NRhFuQUq9bNH01V5G-1" vertex="1">
          <mxGeometry x="440" y="360" width="120" height="40" as="geometry" />
        </mxCell>
        <mxCell id="h8lUMve5sdKUbVkZzbHk-19" value="&lt;p style=&quot;line-height: 0.9;&quot;&gt;Create &lt;br&gt;Scheduled Task&lt;/p&gt;" style="html=1;align=left;spacingLeft=4;verticalAlign=middle;strokeColor=none;fillColor=none;fontStyle=1;spacingTop=2;" parent="h8lUMve5sdKUbVkZzbHk-18" vertex="1">
          <mxGeometry width="120" height="20" as="geometry" />
        </mxCell>
        <mxCell id="h8lUMve5sdKUbVkZzbHk-20" value="" style="shape=ellipse;" parent="h8lUMve5sdKUbVkZzbHk-19" vertex="1">
          <mxGeometry x="1" width="20" height="10" relative="1" as="geometry">
            <mxPoint x="-25" y="5" as="offset" />
          </mxGeometry>
        </mxCell>
        <mxCell id="h8lUMve5sdKUbVkZzbHk-21" value="" style="line;strokeWidth=1;fillColor=none;align=left;verticalAlign=middle;spacingTop=-1;spacingLeft=3;spacingRight=3;rotatable=0;labelPosition=right;points=[];portConstraint=eastwest;" parent="h8lUMve5sdKUbVkZzbHk-18" vertex="1">
          <mxGeometry y="20" width="120" height="8" as="geometry" />
        </mxCell>
        <mxCell id="h8lUMve5sdKUbVkZzbHk-22" value="..." style="html=1;align=left;spacingLeft=4;verticalAlign=top;strokeColor=none;fillColor=none;fontSize=8;spacing=-2;" parent="h8lUMve5sdKUbVkZzbHk-18" vertex="1">
          <mxGeometry y="28" width="120" height="12" as="geometry" />
        </mxCell>
        <mxCell id="h8lUMve5sdKUbVkZzbHk-23" value="" style="fontStyle=1;align=left;verticalAlign=top;childLayout=stackLayout;horizontal=1;horizontalStack=0;resizeParent=1;resizeParentMax=0;resizeLast=0;marginBottom=0;" parent="OM8NRhFuQUq9bNH01V5G-1" vertex="1">
          <mxGeometry x="600" y="280" width="120" height="40" as="geometry" />
        </mxCell>
        <mxCell id="h8lUMve5sdKUbVkZzbHk-24" value="&lt;p style=&quot;line-height: 0.9;&quot;&gt;Change State&lt;/p&gt;" style="html=1;align=left;spacingLeft=4;verticalAlign=middle;strokeColor=none;fillColor=none;fontStyle=1;spacingTop=2;" parent="h8lUMve5sdKUbVkZzbHk-23" vertex="1">
          <mxGeometry width="120" height="20" as="geometry" />
        </mxCell>
        <mxCell id="h8lUMve5sdKUbVkZzbHk-25" value="" style="shape=ellipse;" parent="h8lUMve5sdKUbVkZzbHk-24" vertex="1">
          <mxGeometry x="1" width="20" height="10" relative="1" as="geometry">
            <mxPoint x="-25" y="5" as="offset" />
          </mxGeometry>
        </mxCell>
        <mxCell id="h8lUMve5sdKUbVkZzbHk-26" value="" style="line;strokeWidth=1;fillColor=none;align=left;verticalAlign=middle;spacingTop=-1;spacingLeft=3;spacingRight=3;rotatable=0;labelPosition=right;points=[];portConstraint=eastwest;" parent="h8lUMve5sdKUbVkZzbHk-23" vertex="1">
          <mxGeometry y="20" width="120" height="8" as="geometry" />
        </mxCell>
        <mxCell id="h8lUMve5sdKUbVkZzbHk-27" value="Active/Paused, Retry Count, etc." style="html=1;align=left;spacingLeft=4;verticalAlign=top;strokeColor=none;fillColor=none;fontSize=8;spacing=-2;" parent="h8lUMve5sdKUbVkZzbHk-23" vertex="1">
          <mxGeometry y="28" width="120" height="12" as="geometry" />
        </mxCell>
        <mxCell id="h8lUMve5sdKUbVkZzbHk-28" style="edgeStyle=orthogonalEdgeStyle;rounded=0;orthogonalLoop=1;jettySize=auto;html=1;entryX=0.5;entryY=0;entryDx=0;entryDy=0;" parent="OM8NRhFuQUq9bNH01V5G-1" source="h8lUMve5sdKUbVkZzbHk-5" target="h8lUMve5sdKUbVkZzbHk-7" edge="1">
          <mxGeometry relative="1" as="geometry" />
        </mxCell>
        <mxCell id="h8lUMve5sdKUbVkZzbHk-29" style="edgeStyle=orthogonalEdgeStyle;rounded=0;orthogonalLoop=1;jettySize=auto;html=1;entryX=0.5;entryY=0;entryDx=0;entryDy=0;" parent="OM8NRhFuQUq9bNH01V5G-1" source="h8lUMve5sdKUbVkZzbHk-10" target="h8lUMve5sdKUbVkZzbHk-12" edge="1">
          <mxGeometry relative="1" as="geometry" />
        </mxCell>
        <mxCell id="h8lUMve5sdKUbVkZzbHk-30" style="edgeStyle=orthogonalEdgeStyle;rounded=0;orthogonalLoop=1;jettySize=auto;html=1;entryX=0.5;entryY=1;entryDx=0;entryDy=0;" parent="OM8NRhFuQUq9bNH01V5G-1" source="h8lUMve5sdKUbVkZzbHk-19" target="h8lUMve5sdKUbVkZzbHk-15" edge="1">
          <mxGeometry relative="1" as="geometry" />
        </mxCell>
        <mxCell id="h8lUMve5sdKUbVkZzbHk-31" style="rounded=0;orthogonalLoop=1;jettySize=auto;html=1;entryX=1;entryY=1;entryDx=0;entryDy=0;exitX=0;exitY=1;exitDx=0;exitDy=0;" parent="OM8NRhFuQUq9bNH01V5G-1" source="h8lUMve5sdKUbVkZzbHk-24" target="h8lUMve5sdKUbVkZzbHk-12" edge="1">
          <mxGeometry relative="1" as="geometry" />
        </mxCell>
        <mxCell id="h8lUMve5sdKUbVkZzbHk-32" value="" style="fontStyle=1;align=left;verticalAlign=top;childLayout=stackLayout;horizontal=1;horizontalStack=0;resizeParent=1;resizeParentMax=0;resizeLast=0;marginBottom=0;" parent="OM8NRhFuQUq9bNH01V5G-1" vertex="1">
          <mxGeometry x="440" y="440" width="120" height="40" as="geometry" />
        </mxCell>
        <mxCell id="h8lUMve5sdKUbVkZzbHk-33" value="&lt;p style=&quot;line-height: 0.9;&quot;&gt;Logically Delete&lt;br&gt;Scheduled Task&lt;/p&gt;" style="html=1;align=left;spacingLeft=4;verticalAlign=middle;strokeColor=none;fillColor=none;fontStyle=1;spacingTop=2;" parent="h8lUMve5sdKUbVkZzbHk-32" vertex="1">
          <mxGeometry width="120" height="20" as="geometry" />
        </mxCell>
        <mxCell id="h8lUMve5sdKUbVkZzbHk-34" value="" style="shape=ellipse;" parent="h8lUMve5sdKUbVkZzbHk-33" vertex="1">
          <mxGeometry x="1" width="20" height="10" relative="1" as="geometry">
            <mxPoint x="-25" y="5" as="offset" />
          </mxGeometry>
        </mxCell>
        <mxCell id="h8lUMve5sdKUbVkZzbHk-35" value="" style="line;strokeWidth=1;fillColor=none;align=left;verticalAlign=middle;spacingTop=-1;spacingLeft=3;spacingRight=3;rotatable=0;labelPosition=right;points=[];portConstraint=eastwest;" parent="h8lUMve5sdKUbVkZzbHk-32" vertex="1">
          <mxGeometry y="20" width="120" height="8" as="geometry" />
        </mxCell>
        <mxCell id="h8lUMve5sdKUbVkZzbHk-36" value="..." style="html=1;align=left;spacingLeft=4;verticalAlign=top;strokeColor=none;fillColor=none;fontSize=8;spacing=-2;" parent="h8lUMve5sdKUbVkZzbHk-32" vertex="1">
          <mxGeometry y="28" width="120" height="12" as="geometry" />
        </mxCell>
        <mxCell id="h8lUMve5sdKUbVkZzbHk-37" value="" style="fontStyle=1;align=left;verticalAlign=top;childLayout=stackLayout;horizontal=1;horizontalStack=0;resizeParent=1;resizeParentMax=0;resizeLast=0;marginBottom=0;" parent="OM8NRhFuQUq9bNH01V5G-1" vertex="1">
          <mxGeometry x="440" y="520" width="120" height="40" as="geometry" />
        </mxCell>
        <mxCell id="h8lUMve5sdKUbVkZzbHk-38" value="&lt;p style=&quot;line-height: 0.9;&quot;&gt;Run Task&lt;/p&gt;" style="html=1;align=left;spacingLeft=4;verticalAlign=middle;strokeColor=none;fillColor=none;fontStyle=1;spacingTop=2;" parent="h8lUMve5sdKUbVkZzbHk-37" vertex="1">
          <mxGeometry width="120" height="20" as="geometry" />
        </mxCell>
        <mxCell id="h8lUMve5sdKUbVkZzbHk-39" value="" style="shape=ellipse;" parent="h8lUMve5sdKUbVkZzbHk-38" vertex="1">
          <mxGeometry x="1" width="20" height="10" relative="1" as="geometry">
            <mxPoint x="-25" y="5" as="offset" />
          </mxGeometry>
        </mxCell>
        <mxCell id="h8lUMve5sdKUbVkZzbHk-40" value="" style="line;strokeWidth=1;fillColor=none;align=left;verticalAlign=middle;spacingTop=-1;spacingLeft=3;spacingRight=3;rotatable=0;labelPosition=right;points=[];portConstraint=eastwest;" parent="h8lUMve5sdKUbVkZzbHk-37" vertex="1">
          <mxGeometry y="20" width="120" height="8" as="geometry" />
        </mxCell>
        <mxCell id="h8lUMve5sdKUbVkZzbHk-41" value="..." style="html=1;align=left;spacingLeft=4;verticalAlign=top;strokeColor=none;fillColor=none;fontSize=8;spacing=-2;" parent="h8lUMve5sdKUbVkZzbHk-37" vertex="1">
          <mxGeometry y="28" width="120" height="12" as="geometry" />
        </mxCell>
        <mxCell id="mO-IhmBHAtIKuPdSIgoN-5" style="edgeStyle=none;rounded=0;orthogonalLoop=1;jettySize=auto;html=1;entryX=0;entryY=1;entryDx=0;entryDy=0;" edge="1" parent="OM8NRhFuQUq9bNH01V5G-1" source="mO-IhmBHAtIKuPdSIgoN-4" target="h8lUMve5sdKUbVkZzbHk-38">
          <mxGeometry relative="1" as="geometry" />
        </mxCell>
        <mxCell id="mO-IhmBHAtIKuPdSIgoN-6" style="edgeStyle=none;rounded=0;orthogonalLoop=1;jettySize=auto;html=1;entryX=0;entryY=0.5;entryDx=0;entryDy=0;exitX=1;exitY=0.5;exitDx=0;exitDy=0;" edge="1" parent="OM8NRhFuQUq9bNH01V5G-1" source="mO-IhmBHAtIKuPdSIgoN-4" target="h8lUMve5sdKUbVkZzbHk-11">
          <mxGeometry relative="1" as="geometry" />
        </mxCell>
        <mxCell id="mO-IhmBHAtIKuPdSIgoN-4" value="&amp;lt;&amp;lt;actor&amp;gt;&amp;gt;&lt;br&gt;&lt;b&gt;System &lt;br&gt;Daemon&lt;br&gt;&lt;/b&gt;" style="text;html=1;align=center;verticalAlign=middle;dashed=0;fillColor=#ffffff;strokeColor=#000000;" vertex="1" parent="OM8NRhFuQUq9bNH01V5G-1">
          <mxGeometry x="320" y="520" width="80" height="40" as="geometry" />
        </mxCell>
        <mxCell id="OM8NRhFuQUq9bNH01V5G-2" value="Title/Diagram" parent="OM8NRhFuQUq9bNH01V5G-0" />
        <mxCell id="OM8NRhFuQUq9bNH01V5G-8" value="About" parent="OM8NRhFuQUq9bNH01V5G-0" />
        <UserObject label="" tooltip="" id="OM8NRhFuQUq9bNH01V5G-9">
          <mxCell style="shape=image;html=1;verticalAlign=top;verticalLabelPosition=bottom;labelBackgroundColor=#ffffff;imageAspect=0;aspect=fixed;image=https://cdn1.iconfinder.com/data/icons/hawcons/32/699014-icon-28-information-128.png;shadow=0;dashed=0;fontFamily=Helvetica;fontSize=12;fontColor=#000000;align=center;strokeColor=#000000;fillColor=#505050;dashPattern=1 1;" parent="OM8NRhFuQUq9bNH01V5G-8" vertex="1">
            <mxGeometry x="660" y="380" width="20" height="20" as="geometry" />
          </mxCell>
        </UserObject>
      </root>
    </mxGraphModel>
  </diagram>
</mxfile>
